<svg width="167" height="28" viewBox="0 0 167 28" fill="none" xmlns="http://www.w3.org/2000/svg">
<g clip-path="url(#clip0_6783_52845)">
<path d="M8.8079 17.7231C7.49646 17.7231 6.31351 17.5416 5.26347 17.1872C4.21344 16.8329 3.27859 16.2926 2.46781 15.5623C1.63044 14.8795 1.01016 14.0065 0.606983 12.9477C0.199374 11.8846 0 10.6529 0 9.23971C0 8.57849 0.0531664 7.94321 0.155069 7.33818C0.256971 6.73315 0.4209 6.16269 0.651288 5.63545C0.855093 5.12981 1.1032 4.65443 1.40005 4.21362C1.69246 3.77281 2.04691 3.36658 2.45451 2.99059C2.83997 2.64054 3.26973 2.32506 3.7438 2.04847C4.21787 1.77189 4.72738 1.53852 5.27233 1.33972C5.7907 1.16253 6.34452 1.02856 6.93378 0.929163C7.52304 0.829765 8.15661 0.782227 8.83448 0.782227C9.46805 0.782227 10.0839 0.834086 10.682 0.933485C11.2801 1.03288 11.8517 1.17118 12.3966 1.34836C12.915 1.54716 13.4068 1.78485 13.872 2.06144C14.3328 2.33802 14.7714 2.6535 15.1746 3.00788C15.5334 3.38386 15.8702 3.7901 16.1714 4.23523C16.4771 4.67604 16.7518 5.15142 16.9999 5.66138C17.2038 6.19294 17.3588 6.75908 17.474 7.36843C17.5848 7.97778 17.6424 8.60874 17.6424 9.26996C17.6424 10.6831 17.4297 11.9191 17.0088 12.9736C16.5879 14.0324 15.9721 14.9011 15.1568 15.5839C14.3195 16.3099 13.3758 16.8501 12.3213 17.2002C11.2713 17.5502 10.0972 17.7274 8.8079 17.7231ZM7.41671 18.9116V22.7189L26.3085 22.7449L26.2996 27.7105L1.46651 27.6759L1.4798 18.9072L7.41671 18.9159V18.9116ZM8.81676 12.2649C8.9541 12.2649 9.10474 12.2562 9.2731 12.2303C9.44146 12.2087 9.62754 12.1655 9.83135 12.1006C9.99085 12.079 10.1548 12.0229 10.3231 11.9364C10.4915 11.85 10.6554 11.7376 10.8149 11.608C10.9523 11.5215 11.0808 11.3919 11.2048 11.2277C11.3289 11.0634 11.4485 10.8819 11.5637 10.6831C11.6523 10.5059 11.7276 10.3028 11.7852 10.0695C11.8428 9.83609 11.8694 9.56815 11.8694 9.25699C11.8694 8.99337 11.8428 8.74272 11.7852 8.51367C11.7276 8.2803 11.6567 8.06854 11.5637 7.86974C11.4485 7.69255 11.3333 7.52833 11.2092 7.37275C11.0852 7.21717 10.9567 7.07456 10.8194 6.94059C10.6599 6.85415 10.4959 6.7634 10.3276 6.67696C10.1592 6.59053 9.99528 6.51274 9.83578 6.44359C9.63198 6.40038 9.44589 6.36148 9.27753 6.32691C9.10917 6.29234 8.9541 6.27505 8.82119 6.27505C8.63954 6.27505 8.45788 6.29234 8.27623 6.32259C8.09458 6.35716 7.92622 6.39606 7.76672 6.43927C7.56292 6.5041 7.38126 6.58189 7.22177 6.66832C7.06227 6.75475 6.91606 6.84551 6.77871 6.93194C6.61921 7.06591 6.47744 7.20853 6.35338 7.35979C6.22933 7.51537 6.13186 7.67959 6.0654 7.85678C5.9502 8.05557 5.87045 8.27166 5.82615 8.5007C5.78184 8.73407 5.75969 8.98041 5.75526 9.24403C5.75526 9.55519 5.77741 9.82313 5.82172 10.0565C5.86602 10.2899 5.94577 10.493 6.05654 10.6702C6.12299 10.869 6.22047 11.0505 6.34452 11.2147C6.46858 11.3789 6.61035 11.5086 6.76985 11.595C6.9072 11.729 7.05341 11.837 7.20847 11.9278C7.36797 12.0185 7.54963 12.0704 7.749 12.092C7.9085 12.1568 8.07686 12.2044 8.25851 12.226C8.44016 12.2476 8.62181 12.2605 8.79904 12.2605L8.81676 12.2649ZM29.8263 6.37013L29.8175 12.0963C29.751 12.0963 29.6757 12.1006 29.596 12.1136C29.5162 12.1266 29.432 12.1309 29.3434 12.1309C29.2548 12.1309 29.1662 12.1309 29.0909 12.1309C29.0111 12.1309 28.9269 12.1309 28.8383 12.1309C28.6345 12.1525 28.4307 12.1741 28.2269 12.1957C28.0231 12.2173 27.8326 12.2389 27.6509 12.2605C27.5358 12.2822 27.4294 12.2994 27.3275 12.3081C27.2256 12.321 27.1281 12.334 27.0395 12.3556C26.9509 12.3772 26.8579 12.3945 26.7693 12.4032C26.6807 12.4161 26.6009 12.4204 26.53 12.4204C26.3927 12.4637 26.2863 12.5026 26.2066 12.5371C26.1268 12.5717 26.056 12.5976 25.9851 12.6192L25.9762 19.7327L20.0393 19.724L20.0659 1.12796L26.0028 1.1366L25.9939 7.12642C26.1756 7.01837 26.3794 6.91898 26.6053 6.82822C26.8313 6.74179 27.0927 6.65103 27.3851 6.5646C27.6775 6.49978 28.032 6.44792 28.4352 6.41767C28.8428 6.38741 29.3035 6.37013 29.8263 6.37013Z" fill="#123478"/>
<path d="M46.6934 1.43034V4.30857C46.6181 5.14697 46.4719 5.95079 46.246 6.72437C46.02 7.49795 45.7364 8.24559 45.3953 8.97163C45.2801 9.17043 45.1738 9.35626 45.0719 9.53345C44.97 9.71063 44.8725 9.89647 44.7839 10.0953C44.9212 10.2076 45.0674 10.3157 45.2225 10.428C45.382 10.5404 45.5371 10.6484 45.6966 10.7608C46.3744 11.314 47.0169 11.8974 47.6283 12.5154C48.2397 13.1334 48.8157 13.773 49.3562 14.4385L45.413 18.5009C44.8725 17.8613 44.3231 17.2476 43.7693 16.6642C43.2155 16.0808 42.6705 15.5189 42.1256 14.9917C42.0369 14.9269 41.9483 14.8577 41.873 14.7929C41.7933 14.7281 41.7224 14.6589 41.6515 14.5941C41.5629 14.5293 41.4743 14.4601 41.399 14.3953C41.3192 14.3305 41.2483 14.2613 41.1774 14.1965C40.7477 14.525 40.3135 14.8448 39.8704 15.1559C39.4274 15.4628 38.971 15.7523 38.497 16.0159C37.7039 16.4783 36.902 16.8803 36.0867 17.2217C35.2715 17.5631 34.4474 17.8526 33.6101 18.0946L30.6992 13.9545C31.922 13.4921 33.0518 12.9994 34.093 12.4722C35.1342 11.9449 36.0956 11.3615 36.9773 10.7219C37.8147 10.1255 38.5413 9.49455 39.1527 8.82037C39.7641 8.15052 40.2603 7.45041 40.6502 6.72005L31.8955 6.70708L31.9043 1.41306L46.6934 1.43467V1.43034ZM38.9666 18.959V22.7664L58.1951 22.7923L58.1862 27.7579L33.012 27.7233L33.0252 18.9547L38.9622 18.9633L38.9666 18.959ZM51.9037 10.7694C51.8373 10.8127 51.7531 10.8429 51.6512 10.8516C51.5493 10.8645 51.4297 10.8688 51.2968 10.8688C51.1373 10.9121 50.9778 10.9423 50.8227 10.9509C50.6632 10.9639 50.517 10.9682 50.3796 10.9682C50.198 10.9898 50.0252 11.0028 49.8524 10.9985C49.6796 10.9942 49.529 10.9985 49.3961 10.9985C49.2144 11.0201 49.0549 11.0331 48.922 11.0331C48.7846 11.0331 48.6739 11.0331 48.5808 11.0331H47.8365L47.8454 5.73903H51.917L51.9259 1.17969L57.8628 1.18833L57.8362 19.7844L51.8993 19.7758L51.9126 10.7738L51.9037 10.7694Z" fill="#123478"/>
<path d="M75.2131 9.283L61.0664 9.2614L61.0753 4.33039H65.5191L65.5235 0.367432L70.7826 0.376075V4.34768L75.222 4.35632L75.2131 9.28733V9.283ZM68.1641 26.9759C67.0343 26.9759 66.0375 26.8073 65.1779 26.4745C64.3184 26.1418 63.6051 25.6361 63.0424 24.949C62.431 24.2878 61.988 23.4235 61.7044 22.3647C61.4208 21.3058 61.2835 20.0482 61.2879 18.5918C61.2879 17.2003 61.443 15.9902 61.7531 14.953C62.0588 13.9158 62.5285 13.0342 63.1665 12.3082C63.7779 11.6253 64.5045 11.1067 65.3419 10.7567C66.1792 10.4066 67.1274 10.2294 68.1907 10.2294C69.2319 10.2294 70.1711 10.411 71.0041 10.761C71.8415 11.1154 72.5725 11.634 73.2061 12.3211C73.8175 13.0515 74.2782 13.9331 74.5928 14.9703C74.9074 16.0075 75.0625 17.2219 75.0625 18.6091C75.0625 20.0655 74.9074 21.3231 74.5972 22.3819C74.2915 23.4407 73.8529 24.3008 73.2858 24.962C72.6744 25.6448 71.9389 26.1504 71.0794 26.4789C70.2199 26.8073 69.2452 26.9715 68.1597 26.9715L68.1641 26.9759ZM68.1685 22.0103C68.3945 22.0103 68.6027 21.9455 68.7977 21.8115C68.9882 21.6775 69.1787 21.4701 69.3604 21.1848C69.4977 20.9212 69.604 20.5712 69.6838 20.1433C69.7635 19.7112 69.8034 19.2012 69.8034 18.6048C69.8034 18.056 69.7635 17.5633 69.6882 17.1311C69.6085 16.699 69.5021 16.3316 69.3692 16.0205C69.1876 15.7568 69.0015 15.5537 68.811 15.4068C68.6205 15.2642 68.4078 15.1907 68.1818 15.1907C67.9116 15.1907 67.6768 15.2599 67.4862 15.4068C67.2957 15.5494 67.1274 15.7525 66.9945 16.0161C66.835 16.3273 66.7198 16.6946 66.6533 17.1225C66.5868 17.5503 66.5514 18.043 66.5514 18.5962C66.5514 19.1926 66.5824 19.7025 66.6489 20.1347C66.7153 20.5668 66.8394 20.9126 67.021 21.1762C67.1584 21.4614 67.3179 21.6732 67.5128 21.8072C67.7033 21.9411 67.9249 22.006 68.173 22.006L68.1685 22.0103ZM84.2248 15.6791C83.9324 15.7439 83.6267 15.8087 83.3077 15.8779C82.9887 15.9427 82.6608 15.9772 82.3241 15.9772L82.3064 27.9914L76.9144 27.9828L76.9543 1.21015L82.3462 1.2188L82.333 10.3505H84.2337L84.2469 1.2188L89.6079 1.22744L89.568 28.0001L84.2071 27.9914L84.2248 15.6834V15.6791Z" fill="#123478"/>
<path d="M108.206 17.1179L108.193 26.846L101.888 26.8373L101.902 17.1093L93.0938 1.75879L100.227 1.76743L105.025 11.301L109.854 1.7804L116.988 1.78904L108.202 17.1136L108.206 17.1179Z" fill="#2469A5"/>
<path d="M129.775 27.5202C127.834 27.5202 126.102 27.209 124.582 26.5997C123.058 25.9903 121.778 25.1217 120.741 23.9937C119.682 22.8658 118.88 21.4872 118.34 19.8536C117.799 18.22 117.533 16.3876 117.533 14.3608C117.533 12.3339 117.808 10.5102 118.357 8.88954C118.902 7.26892 119.709 5.89463 120.772 4.771C121.813 3.64737 123.098 2.77439 124.622 2.1564C126.146 1.5384 127.878 1.23156 129.819 1.23588C131.76 1.23588 133.496 1.55137 135.029 2.17368C136.562 2.796 137.86 3.66898 138.924 4.79693C139.983 5.92488 140.798 7.29917 141.361 8.92411C141.923 10.5447 142.202 12.3728 142.202 14.3996C142.202 16.4265 141.914 18.2546 141.343 19.8881C140.776 21.5217 139.961 22.9003 138.893 24.024C137.829 25.1476 136.527 26.0119 134.994 26.6213C133.457 27.2263 131.72 27.5288 129.779 27.5245L129.775 27.5202ZM129.85 21.7767C131.649 21.7767 133.12 21.1155 134.254 19.7887C135.388 18.462 135.955 16.6599 135.96 14.3867C135.96 13.3279 135.809 12.3469 135.495 11.448C135.184 10.5491 134.764 9.75819 134.232 9.07969C133.7 8.42712 133.062 7.91284 132.313 7.54118C131.565 7.16952 130.749 6.97936 129.872 6.97936C128.973 6.97936 128.144 7.16087 127.396 7.53254C126.642 7.9042 126.004 8.41415 125.473 9.06672C124.941 9.7409 124.525 10.5318 124.223 11.4307C123.922 12.3296 123.771 13.3106 123.767 14.3694C123.767 16.6426 124.321 18.449 125.437 19.7758C126.554 21.1069 128.025 21.7724 129.85 21.7767Z" fill="#2469A5"/>
<path d="M156.713 22.1788C157.82 22.1788 158.786 21.8461 159.606 21.1805C160.426 20.515 160.833 19.4735 160.833 18.056V7.43335H166.996V18.5616C166.996 20.0483 166.744 21.362 166.234 22.4986C165.725 23.6352 165.02 24.599 164.121 25.3855C163.221 26.1504 162.14 26.7382 160.882 27.1401C159.624 27.5463 158.233 27.7494 156.708 27.7494C155.184 27.7494 153.798 27.5463 152.553 27.1401C151.308 26.7339 150.231 26.1504 149.332 25.3855C148.454 24.599 147.772 23.6352 147.289 22.4986C146.806 21.362 146.562 20.0483 146.562 18.5616V7.43335H152.725V18.056C152.725 19.4735 153.111 20.515 153.886 21.1805C154.662 21.8461 155.601 22.1788 156.708 22.1788H156.713Z" fill="#2469A5"/>
<path d="M149.406 5.31564C150.911 5.31564 152.131 4.12569 152.131 2.65782C152.131 1.18995 150.911 0 149.406 0C147.902 0 146.682 1.18995 146.682 2.65782C146.682 4.12569 147.902 5.31564 149.406 5.31564Z" fill="#2469A5"/>
<path d="M163.704 5.31564C165.209 5.31564 166.429 4.12569 166.429 2.65782C166.429 1.18995 165.209 0 163.704 0C162.199 0 160.979 1.18995 160.979 2.65782C160.979 4.12569 162.199 5.31564 163.704 5.31564Z" fill="#2469A5"/>
</g>
<defs>
<clipPath id="clip0_6783_52845">
<rect width="167" height="28" fill="white"/>
</clipPath>
</defs>
</svg>
