<svg width="64" height="64" viewBox="0 0 64 64" fill="none" xmlns="http://www.w3.org/2000/svg">
<g clip-path="url(#clip0_6993_73424)">
<path d="M32 0C14.3282 0 0 14.3282 0 32C0 49.6718 14.3282 64 32 64C49.6718 64 64 49.6718 64 32C64 14.3282 49.6743 0 32 0ZM31.9877 51.6061C29.9573 51.6061 28.3114 49.9601 28.3114 47.9298C28.3114 45.8994 29.9573 44.2535 31.9877 44.2535C34.018 44.2535 35.664 45.8994 35.664 47.9298C35.664 49.9601 34.018 51.6061 31.9877 51.6061ZM35.664 36.3095C35.664 38.3399 34.018 39.9858 31.9877 39.9858C29.9573 39.9858 28.3114 38.3399 28.3114 36.3095V16.2624C28.3114 14.2321 29.9573 12.5861 31.9877 12.5861C34.018 12.5861 35.664 14.2321 35.664 16.2624V36.3095Z" fill="#FF6600"/>
</g>
<defs>
<clipPath id="clip0_6993_73424">
<rect width="64" height="64" fill="white"/>
</clipPath>
</defs>
</svg>
